<svg viewBox="0 0 64 64" xmlns="http://www.w3.org/2000/svg" xmlns:xlink="http://www.w3.org/1999/xlink">
  <defs>
    <path d="M51 33c0 9-9 18-18 18-11 0-20-9-20-18 0-11 9-20 20-20 9 0 18 9 18 20z" id="prefix__a" />
    <path
      d="M17 40c3 5 9 9 15 9s12-4 15-9m12 0c-4 11-15 20-27 20S9 51 5 40m0-16C9 13 20 4 32 4s23 9 27 20m-12 0c-3-5-9-9-15-9s-12 4-15 9"
      id="prefix__b" />
  </defs>
  <g font-size="5.7" font-weight="100" style="text-transform:uppercase" fill="#fc09"
    font-family="Bahnschrift,sans-serif">
    <text letter-spacing="-.8">
      <textPath startOffset="65" baseline-shift="1.6" xlink:href="#prefix__a"> No Language Model </textPath>
    </text>
    <text letter-spacing="-.65">
      <textPath startOffset="-1.3" baseline-shift="-7.7" xlink:href="#prefix__b"> No User Metrics </textPath>
    </text>
    <g font-weight="400">
      <text x="32" y="24" font-size="6" text-anchor="middle">100%</text>
      <text transform="matrix(1.5 0 0 1.4 0 0)" x="0" y="27.1" font-size="11.5">AI FREE</text>
    </g>
  </g>
  <path
    d="M17 40c3 5 9 9 15 9s12-4 15-9m12 0c-4 11-15 20-27 20S9 51 5 40m0-16C9 13 20 4 32 4s23 9 27 20m-12 0c-3-5-9-9-15-9s-12 4-15 9"
    fill="none" stroke="#fc09" stroke-width="1" stroke-linecap="round" />
</svg>